<?xml version="1.0" encoding="utf-8"?>
<!-- Generator: Adobe Illustrator 25.4.1, SVG Export Plug-In . SVG Version: 6.00 Build 0)  -->
<svg version="1.1" id="Warstwa_1" xmlns="http://www.w3.org/2000/svg" xmlns:xlink="http://www.w3.org/1999/xlink" x="0px" y="0px"
	 viewBox="0 0 1466.3 444.7" style="enable-background:new 0 0 1466.3 444.7;" xml:space="preserve">
<style type="text/css">
	.st0{clip-path:url(#SVGID_00000098926982006725539160000013829873893180820404_);}
	.st1{fill:url(#SVGID_00000020399367528033830450000011281178866904739458_);}
	.st2{clip-path:url(#SVGID_00000047033788767593598840000013022400016877475714_);}
	.st3{fill:url(#SVGID_00000180338871107852482960000012291679881806406286_);}
	.st4{fill:#00839B;}
	.st5{clip-path:url(#SVGID_00000003794787644598919840000009273769956017204413_);}
	.st6{fill:url(#SVGID_00000021089192297816141980000006670188822398922647_);}
</style>
<path d="M373.8,249.8h-28.9v24.4h27.6l0.8-10.2h13v23.3h-67.5V277l9.1-1.8V214l-9.1-1.8v-10.3h67.4v23.4H373l-0.8-10.2h-27.3v21.5
	h28.9L373.8,249.8z"/>
<path d="M396.7,277l8.3-1.8v-39.4h-9.4v-12h9.4v-7c0-7.1,2-12.6,6.1-16.4c4.1-3.8,9.9-5.8,17.3-5.8c1.5,0,3,0.1,4.4,0.3
	c1.5,0.2,3.2,0.5,5,0.9l-1.5,12.7c-0.9-0.1-1.9-0.3-2.7-0.4c-1-0.1-2-0.2-3.1-0.2c-2.8,0-4.9,0.8-6.3,2.3c-1.4,1.5-2.1,3.7-2.1,6.6
	v7h12.6v12h-12.6v39.4l8.3,1.8v10.2h-33.6V277z"/>
<path d="M469.4,288.5c-9.1,0-16.4-2.9-21.9-8.8c-5.5-5.9-8.2-13.3-8.2-22.3V255c0-9.4,2.6-17.2,7.8-23.3s12.1-9.1,20.8-9.1
	c8.6,0,15.2,2.6,19.9,7.7c4.7,5.2,7.1,12.1,7.1,20.9v9.3H457l-0.1,0.4c0.2,3.8,1.6,7.5,4.2,10.3c2.5,2.7,5.9,4,10.1,4
	c3.2,0.1,6.4-0.3,9.4-1.1c2.8-0.9,5.6-2.1,8.2-3.6l4.6,10.5c-3.1,2.3-6.5,4.1-10.2,5.2C478.8,287.8,474.1,288.5,469.4,288.5z
	 M467.9,235.9c-2.9-0.1-5.8,1.3-7.5,3.6c-2,2.8-3.2,6.1-3.4,9.5l0.2,0.3h21v-1.5c0.2-3.1-0.7-6.2-2.5-8.7
	C473.9,237,471.3,235.9,467.9,235.9z"/>
<path d="M501.1,206.2v-10.3h26.2v53h3.8L541,235l-5.6-0.8v-10.3h31.1v10.3l-7.5,1.7l-11.4,15.7l16,24.1l6.5,1.4v10.2h-29.3V277
	l3.5-0.6l-9.7-15.7h-7.3v14.5l7.4,1.8v10.2H502V277l8.3-1.8v-67.3L501.1,206.2z"/>
<path d="M601.4,208.4v15.5h11.1v12h-11.1v32.3c0,2.5,0.5,4.2,1.5,5.3c1.1,1.1,2.6,1.7,4.1,1.6c1,0,2.1,0,3.1-0.2c1-0.1,2-0.3,3-0.5
	l1.5,12.3c-1.9,0.6-3.8,1-5.7,1.3c-2,0.3-4.1,0.4-6.1,0.4c-5.9,0-10.4-1.6-13.6-4.9c-3.2-3.2-4.8-8.4-4.8-15.4v-32.3H575v-12h9.3
	v-15.5H601.4z"/>
<path d="M686.5,234.2l-5.9,0.9l-23.3,61.7c-1.6,4.3-4.1,8.2-7.3,11.5c-3.1,3.1-7.7,4.6-13.9,4.6c-1.4,0-2.7-0.1-4.1-0.3
	c-1.3-0.2-2.8-0.6-4.5-1l2-12.5l1.7,0.2c0.5,0.1,1,0.1,1.5,0.1c2.4,0.2,4.7-0.6,6.6-2.1c1.5-1.4,2.7-3.2,3.5-5.2l1.9-4.8l-20.1-52.2
	l-5.9-0.9v-10.3h31v10.3l-7.1,1.2l8.7,25.3l0.9,4.6l0.3,0.1l10-29.9l-7.2-1.2v-10.3h31L686.5,234.2z"/>
<path d="M782.3,234.2l-6.4,0.8l-13.2,52.3h-14.3l-11.8-37.7h-0.3l-11.7,37.7h-14.2L696.9,235l-6.4-0.8v-10.3h28.7v10.3l-6.7,1.3
	l6,29h0.3l11.8-40.6h11.5l12,40.7h0.3l5.9-29.1l-6.8-1.3v-10.3h28.7L782.3,234.2z"/>
<path d="M787.2,277l8.2-1.8v-39.3l-9.1-1.8v-10.3h25l0.8,9.1c2-3.1,4.6-5.7,7.8-7.6c3.1-1.8,6.7-2.8,10.4-2.7c6.4,0,11.4,2,15,6
	s5.4,10.3,5.4,18.9v27.6l8.2,1.8v10.2h-32.7V277l7.3-1.8v-27.5c0-4.3-0.9-7.3-2.6-9s-4.3-2.7-7.8-2.7c-2.1,0-4.2,0.4-6.1,1.4
	c-1.8,0.9-3.3,2.3-4.5,3.9v34l6.9,1.8v10.2h-32.2L787.2,277z"/>
<path d="M929.9,234.2l-5.9,0.9l-23.3,61.7c-1.6,4.3-4.1,8.2-7.3,11.5c-3.1,3.1-7.7,4.6-13.9,4.6c-1.4,0-2.7-0.1-4.1-0.3
	c-1.3-0.2-2.8-0.6-4.5-1l2-12.5l1.7,0.2c0.5,0.1,1,0.1,1.5,0.1c2.4,0.2,4.7-0.6,6.6-2.1c1.6-1.4,2.8-3.2,3.5-5.2l1.9-4.8l-20.1-52.2
	l-5.9-0.9v-10.3h31v10.3l-7.1,1.2l8.7,25.3l0.9,4.6l0.4,0.1l10-29.9l-7.2-1.2v-10.3h31L929.9,234.2z"/>
<path d="M964.3,279.9l6.3-0.9l29.8-77h9.9l29.3,77l6.3,0.9v7.4h-24.5v-7.4l6.4-1.1l-5.6-15.7h-34.2l-5.8,15.7l6.4,1.1v7.4h-24.4
	V279.9z M991.6,253.4h27.1l-13.2-36.6h-0.3L991.6,253.4z"/>
<path d="M1052.5,203.3v-7.4h21.1v82.4l9.6,1.6v7.4h-30.6v-7.4l9.6-1.6v-73.3L1052.5,203.3z"/>
<path d="M1112.1,208.6v15.3h12v8.6h-12v38.5c0,3,0.6,5.1,1.8,6.3c1.3,1.2,3.1,1.9,4.9,1.8c1.1,0,2.3-0.1,3.4-0.3
	c1.3-0.2,2.3-0.4,3.2-0.6l1.6,7.9c-1.5,0.8-3.1,1.4-4.8,1.7c-2.1,0.4-4.2,0.7-6.3,0.7c-4.7,0-8.4-1.4-11.2-4.2
	c-2.8-2.8-4.2-7.3-4.2-13.3v-38.5h-10v-8.6h10v-15.3H1112.1z"/>
<path d="M1135.9,231.3v-7.5h19.9l1.1,9.2c1.6-3,3.9-5.6,6.7-7.6c2.6-1.8,5.8-2.8,9-2.8c0.9,0,1.9,0.1,2.8,0.2
	c0.7,0.1,1.5,0.2,2.2,0.4l-1.5,10.7l-6.6-0.4c-2.7-0.1-5.4,0.6-7.7,2.1c-2.1,1.5-3.8,3.6-4.8,6v36.4l9.6,1.6v7.4h-30.6v-7.4l9.6-1.6
	v-45.3L1135.9,231.3z"/>
<path d="M1230.9,277.9c-1.8,3.2-4.5,5.9-7.7,7.8c-3.3,1.9-7.1,2.8-10.9,2.8c-6.9,0-12.2-2.2-16.1-6.6c-3.9-4.4-5.8-11.3-5.8-20.6
	v-28.3l-7.3-1.6v-7.5h18.8v37.5c0,6.8,1,11.4,3,14c2,2.6,5.1,3.8,9.3,3.8c3.6,0.1,7.1-0.7,10.2-2.5c2.7-1.7,4.8-4.1,6.1-7.1V233
	l-8.5-1.6v-7.5h20v54.4l7.3,1.6v7.4h-17.6L1230.9,277.9z"/>
<path d="M1258.4,279.9l9.6-1.6v-45.3l-9.6-1.6v-7.5h21.1v54.4l9.6,1.6v7.4h-30.6L1258.4,279.9z M1279.5,207.6H1268v-11.8h11.5
	L1279.5,207.6z"/>
<path d="M1312.9,278.2h25.9l0.9-9.8h9.8v18.8h-50.3v-8.1l34.3-46.2h-23.2l-0.9,9.7h-9.8v-18.9h48v7.9L1312.9,278.2z"/>
<path d="M1359.1,279.9l9.6-1.6v-45.3l-9.6-1.6v-7.5h19.9l0.8,8.3c2-3,4.7-5.4,7.8-7c3.5-1.7,7.3-2.5,11.1-2.5
	c3.8-0.1,7.6,0.9,10.9,2.9c3.2,2.1,5.6,5.2,6.8,8.8c1.9-3.5,4.6-6.4,7.9-8.5c3.4-2.2,7.4-3.3,11.5-3.2c6.5,0,11.6,2.2,15.3,6.6
	c3.8,4.4,5.6,11.1,5.6,20v28.9l9.6,1.6v7.4h-30.7v-7.4l9.6-1.6v-29c0-6.2-1.1-10.7-3.2-13.3c-2.1-2.6-5.3-3.9-9.6-3.9
	c-3.7-0.1-7.3,1.4-9.7,4.2c-2.5,3-4,6.8-4.2,10.7v31.2l9.6,1.6v7.4h-30.7v-7.4l9.6-1.6v-29c0-5.9-1.1-10.3-3.3-13s-5.4-4.1-9.6-4.1
	c-3-0.1-6.1,0.6-8.7,2.2c-2.3,1.5-4.1,3.6-5.2,6.1v37.9l9.6,1.6v7.4h-30.7L1359.1,279.9z"/>
<g>
	<defs>
		<path id="SVGID_1_" d="M83,402.2c0,6.9,5.6,12.4,12.4,12.4l0,0c57.9,0,86.4,1.1,102.1,25c3.9,5.7,11.6,7.1,17.3,3.3
			c5.5-3.8,7.1-11.3,3.5-16.9l0,0c-23.8-36.2-65.4-36.2-122.9-36.2C88.5,389.8,83,395.4,83,402.2L83,402.2"/>
	</defs>
	<clipPath id="SVGID_00000165216246326386912880000006610072017449055915_">
		<use xlink:href="#SVGID_1_"  style="overflow:visible;"/>
	</clipPath>
	<g style="clip-path:url(#SVGID_00000165216246326386912880000006610072017449055915_);">
		
			<linearGradient id="SVGID_00000017507496345636604540000003648309728800106663_" gradientUnits="userSpaceOnUse" x1="-919.218" y1="1892.6276" x2="-914.7479" y2="1892.6276" gradientTransform="matrix(0 -5.96 5.96 0 -11127.2705 -5036.3501)">
			<stop  offset="0" style="stop-color:#00839B"/>
			<stop  offset="1" style="stop-color:#1F5369"/>
		</linearGradient>
		
			<rect x="83.3" y="389.7" style="fill:url(#SVGID_00000017507496345636604540000003648309728800106663_);" width="139" height="55"/>
	</g>
</g>
<g>
	<defs>
		<path id="SVGID_00000162340990025251807580000001426823973553354378_" d="M83.3,352.1c0,6.9,5.6,12.5,12.5,12.5
			c59.6,0,95.7,2.6,100.1,15.5c-1,2.5-4.3,4.9-14.5,6.8c-15.8,3-40.7,3-75.1,2.9H95.8c-6.9,0-12.5,5.6-12.5,12.5s5.6,12.5,12.5,12.5
			h20c30.9,0,53.8-0.3,70.2-3.4c16.9-3.2,27.8-10.2,32.5-20.8c1.8-2.1,2.8-9.8,2.7-10.8c-0.1-1-0.7-8.3-2.2-10.3
			c-11.4-29.9-63.7-29.9-123.3-29.9C88.9,339.6,83.3,345.1,83.3,352.1L83.3,352.1l0-0.3"/>
	</defs>
	<clipPath id="SVGID_00000043456485330087422190000003548690034708348824_">
		<use xlink:href="#SVGID_00000162340990025251807580000001426823973553354378_"  style="overflow:visible;"/>
	</clipPath>
	<g style="clip-path:url(#SVGID_00000043456485330087422190000003548690034708348824_);">
		
			<linearGradient id="SVGID_00000137814108753226348870000009320511839038503048_" gradientUnits="userSpaceOnUse" x1="-1006.779" y1="1839.704" x2="-1002.269" y2="1839.704" gradientTransform="matrix(0 -10.37 10.37 0 -18925.9395 -10037.1104)">
			<stop  offset="0" style="stop-color:#00839B"/>
			<stop  offset="1" style="stop-color:#1F5369"/>
		</linearGradient>
		
			<rect x="83.3" y="339.7" style="fill:url(#SVGID_00000137814108753226348870000009320511839038503048_);" width="137" height="75"/>
	</g>
</g>
<path class="st4" d="M143,0.6C65.5,0.6,2.5,63.6,2.5,141.1c0,33.7,12.1,66.3,34.2,91.8l0,0c0.1,0.1,11,13.1,18,39
	c6.3,23.8,23.3,36.9,47.7,36.9h23c13.5,0,25-2.6,67.1-67.5c7.6-11.8,16.6-30.6,21.8-47.2c8.8-28.2,2.4-45.4-4.6-54.9
	c-8.1-11-21.4-17.5-35.7-17.5c-11,0-22.2,7.1-31,15.3c-5.8,5.7-10.2,12.6-12.9,20.2c-1.5,4.3-2.3,8.9-2.4,13.5
	c0,11,8.7,17.3,14,17.3c7.8,0,14.3-9.7,14.3-17.3c0-4.3-0.7-8.6-2-12.8c4.9-6.4,14.1-11.2,19.9-11.2c2.4,0,10.6,0.5,15.6,7.4
	c5,6.8,5.4,18.2,0.9,32.6c-3.8,12-11.2,28-18.5,40.4c-15.9,26.8-31,42.5-39.2,51.5c-2.9,3.5-7.2,5.5-11.7,5.3l-18.5-0.1
	c-12.9,0-20.2-5.7-23.6-18.4c-8.5-31.3-22.2-47.5-23.1-48.6l0,0C14.3,168.6,19.6,95.9,67.7,54.4S188.4,18.1,230,66.2
	c18.1,20.9,28,47.6,28,75.2c0,28.7-10.7,59-28,79v0.1c-4,4.4-29,34.3-29,88.7c0,15.3-32.6,30.8-105.4,30.8
	c-6.8,0-12.4,5.5-12.4,12.4c0,1.3,0.2,2.6,0.6,3.9c1.7,5.1,6.4,8.5,11.8,8.4h-0.2c113.7,0,130.7-35,130.7-55.8
	c0-47.4,21.8-71.3,22.8-72.4c0.1-0.1,0.2-0.2,0.2-0.3l0.1-0.1c21.4-24.8,34.2-60.5,34.2-95.6C283.5,63,220.5,0,143,0"/>
<g>
	<defs>
		<path id="SVGID_00000021098685682010427390000003081426287457073061_" d="M76.2,141c-10,14.4-11.2,34-3.4,55.4
			c7.4,20.1,25,40.5,38,53.7c4.8,4.9,12.6,4.9,17.5,0.2c4.9-4.8,4.9-12.6,0.2-17.5c-15.7-16-28-32.6-32.5-44.9
			c-5-13.5-4.8-25.1,0.5-32.7c3.8-5.4,10.1-8.4,17.7-8.4c5.4,0,12.6,5.1,16.3,11.1c2.7-7.5,7-14.4,12.8-20
			c-7.4-8.2-17.4-15.8-29.1-15.8C98.4,122,84.6,129,76.2,141"/>
	</defs>
	<clipPath id="SVGID_00000073684896590779579010000001188627577683804814_">
		<use xlink:href="#SVGID_00000021098685682010427390000003081426287457073061_"  style="overflow:visible;"/>
	</clipPath>
	<g style="clip-path:url(#SVGID_00000073684896590779579010000001188627577683804814_);">
		
			<linearGradient id="SVGID_00000016051465635186550370000014321617608742471858_" gradientUnits="userSpaceOnUse" x1="-1062.0839" y1="1733.0852" x2="-1057.5739" y2="1733.0852" gradientTransform="matrix(15.99 -12.94 12.94 15.99 -5367.5298 -41244.0508)">
			<stop  offset="0" style="stop-color:#00839B"/>
			<stop  offset="1" style="stop-color:#1F5369"/>
		</linearGradient>
		<polygon style="fill:url(#SVGID_00000016051465635186550370000014321617608742471858_);" points="0,174.6 112.3,83.7 208.3,202.3 
			96,293.2 		"/>
	</g>
</g>
</svg>
