<svg xmlns="http://www.w3.org/2000/svg" width="110" height="60" viewBox="0 0 197.482 60">
  <g id="logo_white" data-name="logo white" transform="translate(-2.45 0.03)">
    <path id="Path_23" data-name="Path 23" d="M37.544,15.867c-.171-.032-.372-.077-.6-.135l.27-1.683.229.031a1.73,1.73,0,0,0,.205.016,1.276,1.276,0,0,0,.885-.281,1.864,1.864,0,0,0,.475-.7l.26-.649L36.553,5.425l-.8-.126V3.908h4.182V5.3l-.956.159L40.15,8.873l.117.616.049.008,1.349-4.039L40.7,5.3V3.908h4.182L44.9,5.3l-.8.119-3.146,8.322a4.586,4.586,0,0,1-.992,1.55,2.538,2.538,0,0,1-1.87.625A3.251,3.251,0,0,1,37.544,15.867Zm-32.84,0c-.171-.032-.372-.077-.6-.135l.27-1.683.229.031A1.731,1.731,0,0,0,4.8,14.1a1.28,1.28,0,0,0,.886-.281,1.874,1.874,0,0,0,.474-.7l.262-.649L3.718,5.425l-.8-.126V3.908H7.1V5.3l-.956.159L7.316,8.873l.119.616.047.008L8.829,5.459,7.865,5.3V3.908h4.182L12.059,5.3l-.8.119L8.114,13.739a4.586,4.586,0,0,1-.992,1.55,2.541,2.541,0,0,1-1.87.625A3.251,3.251,0,0,1,4.7,15.867ZM82.99,12.625a2.737,2.737,0,0,1-2.173-.893,4.147,4.147,0,0,1-.782-2.782V5.133l-.979-.221V3.906h2.536v5.06a3.211,3.211,0,0,0,.4,1.889,1.477,1.477,0,0,0,1.257.514,2.579,2.579,0,0,0,1.371-.336,2.112,2.112,0,0,0,.819-.952V5.139L84.3,4.918V3.913h2.7v7.336l.981.221v1h-2.38L85.5,11.2a2.889,2.889,0,0,1-1.04,1.059,2.846,2.846,0,0,1-1.406.372Zm-100.219,0a3.849,3.849,0,0,1-2.956-1.186,4.242,4.242,0,0,1-1.106-3.012V8.111a4.682,4.682,0,0,1,1.047-3.139,3.476,3.476,0,0,1,2.81-1.225,3.458,3.458,0,0,1,2.687,1.044,4.032,4.032,0,0,1,.956,2.826V8.875H-18.9l-.016.047a2.249,2.249,0,0,0,.565,1.393,1.772,1.772,0,0,0,1.364.54,4.5,4.5,0,0,0,1.272-.154,6.134,6.134,0,0,0,1.108-.487l.625,1.423a4.575,4.575,0,0,1-1.372.7,5.837,5.837,0,0,1-1.807.286Zm-1.217-6.608a2.545,2.545,0,0,0-.459,1.288l.024.039h2.833V7.14a1.849,1.849,0,0,0-.344-1.174,1.246,1.246,0,0,0-1.043-.438h-.044A1.2,1.2,0,0,0-18.447,6.018Zm86.925,6.035a2.469,2.469,0,0,1-.563-1.8V5.061H66.567V3.906h1.349V1.844h1.558V3.906h1.619V5.061H69.474v5.192a1.151,1.151,0,0,0,.249.846.9.9,0,0,0,.66.245,3.782,3.782,0,0,0,.463-.035c.17-.024.314-.049.43-.076l.213,1.067a2.015,2.015,0,0,1-.648.233,4.222,4.222,0,0,1-.854.09A2.027,2.027,0,0,1,68.478,12.053ZM.765,12.62a2.459,2.459,0,0,1-1.837-.656,2.878,2.878,0,0,1-.643-2.079V5.523H-2.973V3.9h1.257V1.817H.58V3.91h1.5V5.529H.58V9.881a1,1,0,0,0,.205.711.735.735,0,0,0,.553.215c.135,0,.278-.007.415-.02a3.7,3.7,0,0,0,.4-.068l.2,1.665a5.952,5.952,0,0,1-.766.177,5.424,5.424,0,0,1-.8.059Zm24.877-.156,0-1.387,1.106-.237v-5.3L25.526,5.3V3.906H28.9L29,5.133a3.1,3.1,0,0,1,1.051-1.02,2.721,2.721,0,0,1,1.4-.364,2.578,2.578,0,0,1,2.024.809A3.757,3.757,0,0,1,34.2,7.11v3.723l1.108.237v1.383H30.9V11.071l.989-.237V7.118A1.7,1.7,0,0,0,31.538,5.9a1.427,1.427,0,0,0-1.051-.36,1.754,1.754,0,0,0-.823.186,1.68,1.68,0,0,0-.608.526v4.587l.932.237v1.383Zm-33.232,0V11.08l.474-.08L-8.427,8.883h-.989v1.96l1,.237v1.383h-4.411V11.08l1.114-.237V1.761l-1.229-.241V.129h3.533v7.15H-8.9l1.329-1.874-.751-.1V3.91h4.2V5.3l-1.012.229L-6.674,7.65-4.515,10.9l.878.182v1.383Zm110.38,0v-1l1.288-.221V5.133l-1.288-.221V3.906h2.687l.1,1.116a2.768,2.768,0,0,1,1.059-.944,3.237,3.237,0,0,1,1.5-.332,2.64,2.64,0,0,1,1.466.4,2.4,2.4,0,0,1,.921,1.186A3.164,3.164,0,0,1,111.6,4.173a2.8,2.8,0,0,1,1.549-.428,2.57,2.57,0,0,1,2.071.9,4.093,4.093,0,0,1,.76,2.7v3.9l1.288.221v1h-4.143v-1l1.288-.221V7.326a2.852,2.852,0,0,0-.434-1.792,1.565,1.565,0,0,0-1.288-.525,1.639,1.639,0,0,0-1.309.573,2.485,2.485,0,0,0-.572,1.442v4.213l1.288.221v1H107.96v-1l1.288-.221V7.326a2.78,2.78,0,0,0-.447-1.754,1.579,1.579,0,0,0-1.292-.557,2.118,2.118,0,0,0-1.17.293,1.889,1.889,0,0,0-.7.822v5.114l1.288.221v1Zm-8.078,0v-1.09l4.624-6.23H96.206l-.119,1.313H94.761V3.906h6.475v1.06l-4.674,6.276h3.494l.127-1.321H101.5v2.537Zm-5.5,0v-1l1.288-.221V5.133l-1.288-.221V3.906h2.844v7.336l1.288.221v1Zm-16.527,0v-1l1.288-.221V5.133l-1.288-.221V3.906h2.679l.151,1.241a2.961,2.961,0,0,1,.9-1.027,2.069,2.069,0,0,1,1.214-.372A2.5,2.5,0,0,1,78,3.777a1.853,1.853,0,0,1,.3.059l-.205,1.446-.886-.047a1.769,1.769,0,0,0-1.035.289,1.862,1.862,0,0,0-.649.809v4.909l1.288.221v1Zm-11.243,0v-1l1.288-.221V1.354L61.44,1.133v-1h2.845V11.242l1.288.221v1Zm-4.2,0v-1l.869-.15-.758-2.119H52.741l-.782,2.119.869.15v1h-3.3v-1l.854-.119L54.408.951h1.336L59.7,11.345l.846.119v1ZM53.222,7.887h3.652L55.092,2.946h-.047ZM20.4,12.459l-1.592-5.09h-.047l-1.582,5.09H15.264L13.47,5.409,12.609,5.3V3.906h3.873V5.3l-.908.174.809,3.912h.047l1.6-5.478h1.55L21.2,9.4h.045l.8-3.922L21.121,5.3V3.906H24.99L24.981,5.3l-.862.111-1.786,7.05Zm-47.434,0V11.076l1.114-.237V5.528h-1.273V3.909h1.272V2.965a2.887,2.887,0,0,1,.83-2.216A3.294,3.294,0,0,1-22.755-.03a3.828,3.828,0,0,1,.6.043c.2.028.426.07.668.123l-.2,1.715c-.127-.02-.25-.039-.368-.055a2.811,2.811,0,0,0-.414-.023,1.108,1.108,0,0,0-.85.308,1.254,1.254,0,0,0-.289.885v.944h1.7V5.528h-1.7v5.311l1.114.237v1.383Zm-10.52,0V11.074l1.225-.237V2.579l-1.225-.237V.951h9.09V4.11h-1.771l-.1-1.376h-3.684V5.628h3.9V7.4h-3.9v3.286H-30.3l.1-1.376h1.754v3.146ZM90.506,1.717V.129h1.555V1.717Z" transform="translate(82.668 26.265)" fill="#fff"/>
    <path id="Path_24" data-name="Path 24" d="M-19.128,43.5a1.671,1.671,0,0,1-.909-.683c-1.9-2.892-5.184-3.309-11.461-3.364h-2.266a1.7,1.7,0,0,1-.279-.023,1.68,1.68,0,0,1-1.408-1.278v-.769a1.681,1.681,0,0,1,1.4-1.278,1.7,1.7,0,0,1,.288-.025h1.415a64.679,64.679,0,0,0,10.136-.394c1.383-.262,1.822-.588,1.957-.919-.595-1.732-5.469-2.085-13.509-2.085A1.688,1.688,0,0,1-35.451,31v-.134a1.688,1.688,0,0,1,1.4-1.528h4.544c6.167.109,11.126.71,12.379,4.011a1.443,1.443,0,0,1,.163.47V35.6a1.7,1.7,0,0,1-.233.6,4.462,4.462,0,0,1-2.456,2.234,9.3,9.3,0,0,1,2.426,2.542h0a1.678,1.678,0,0,1-.481,2.324,1.682,1.682,0,0,1-.427.2ZM-31.736,17.231c-1.754-1.785-4.133-4.534-5.126-7.242-1.056-2.88-.89-5.53.459-7.467l-.005,0A6.121,6.121,0,0,1-31.283-.03,5.574,5.574,0,0,1-27.362,2.1a7.12,7.12,0,0,0-1.72,2.7,3.085,3.085,0,0,0-2.2-1.492,2.8,2.8,0,0,0-2.393,1.128c-.711,1.02-.737,2.583-.062,4.409a19.78,19.78,0,0,0,4.381,6.053,1.668,1.668,0,0,1-.021,2.359,1.663,1.663,0,0,1-1.169.478A1.663,1.663,0,0,1-31.736,17.231Z" transform="translate(48.807 16.467)" fill="#fff"/>
    <path id="Path_20" data-name="Path 20" d="M37.865,89.694A18.945,18.945,0,0,0,23.52,121.024h0a14.653,14.653,0,0,1,2.428,5.261,6.241,6.241,0,0,0,6.439,4.978h3.1c1.824,0,3.373-.356,9.051-9.113a28.684,28.684,0,0,0,2.944-6.366c1.191-3.811.324-6.124-.614-7.4a5.962,5.962,0,0,0-4.817-2.366,6.693,6.693,0,0,0-4.182,2.061,7.184,7.184,0,0,0-1.735,2.721,5.538,5.538,0,0,0-.32,1.82,2.246,2.246,0,0,0,1.889,2.334c1.054,0,1.932-1.307,1.932-2.334a5.957,5.957,0,0,0-.27-1.721,4.032,4.032,0,0,1,2.683-1.518,2.648,2.648,0,0,1,2.106.994c.677.923.724,2.448.116,4.4a28.6,28.6,0,0,1-2.5,5.445,38.648,38.648,0,0,1-5.287,6.947,1.967,1.967,0,0,1-1.584.72l-2.493-.015a2.938,2.938,0,0,1-3.189-2.477,17.531,17.531,0,0,0-3.116-6.556h0A15.524,15.524,0,1,1,53.38,108.7,16.933,16.933,0,0,1,49.6,119.356v.008c-.54.6-3.912,4.627-3.912,11.959,0,2.068-4.4,4.155-14.215,4.155a1.674,1.674,0,0,0-1.675,1.67,1.7,1.7,0,0,0,.085.526,1.654,1.654,0,0,0,1.589,1.139H31.45c15.341,0,17.632-4.715,17.632-7.526,0-6.392,2.935-9.62,3.074-9.77.013-.014.022-.028.034-.042l.018-.018a20.2,20.2,0,0,0,4.611-12.9A18.967,18.967,0,0,0,37.874,89.61" transform="translate(-16.46 -89.64)" fill="#fff"/>
  </g>
</svg>
